<?xml version="1.0" encoding="UTF-8"?>
<svg id="Layer_2" data-name="Layer 2" xmlns="http://www.w3.org/2000/svg" viewBox="0 0 1000 1001">
  <defs>
    <style>
      .cls-1 {
        fill: #fff7ea;
      }

      .cls-1, .cls-2, .cls-3 {
        stroke: #000;
        stroke-miterlimit: 10;
        stroke-width: 5px;
      }

      .cls-2 {
        fill: #ff721b;
      }

      .cls-3 {
        fill: #609df6;
      }

      .cls-4 {
        fill: #414143;
        opacity: 0;
        stroke-width: 0px;
      }
    </style>
  </defs>
  <g id="Layer_1-2" data-name="Layer 1">
    <g>
      <rect class="cls-4" width="1000" height="1001" rx="208.11" ry="208.11"/>
      <g>
        <g>
          <path class="cls-2" d="m533.62,330.02l-23.4,7.97c-5.99,2.04-12.59,1.11-17.78-2.51l-18.31-12.77c-13.16-9.17-31.2.21-31.25,16.25l-1.42,447.1c-.03,11.01,8.88,19.94,19.88,19.94h77.4c10.96,0,19.85-8.87,19.88-19.82l1.28-437.28c.04-13.65-13.37-23.28-26.29-18.88Z"/>
          <path class="cls-1" d="m538.77,806h-77.49c-10.98,0-19.88-8.9-19.88-19.88v-196.83c0-21.36,29.08-27.69,37.96-8.27h0c7.46,16.31,30.99,15.19,36.87-1.76l4.62-13.33c7.36-21.22,38.76-15.87,38.67,6.59l-.86,213.67c-.04,10.95-8.93,19.8-19.88,19.8Z"/>
        </g>
        <path class="cls-3" d="m437.32,207.13c-16.79,15.18-33.59,30.37-50.38,45.55-8.95,8.09-23,6.41-29.78-3.57-2.07-3.04-4.14-6.09-6.2-9.13-10.78-15.87-35.56-8.77-36.31,10.4l-20.84,534.97c-.44,11.28,8.58,20.66,19.87,20.66h107.85c10.98,0,19.88-8.9,19.88-19.88v-274.4c0-8.26,5.11-15.66,12.83-18.59l78.84-29.91c13.01-4.94,26.94,4.67,26.94,18.59v23.97c0,13.7,13.53,23.29,26.46,18.76l57.61-20.2c6.78-2.38,11.74-8.22,13-15.29l46.79-263.7c2.16-12.18-7.21-23.36-19.58-23.36h-233.62c-4.93,0-9.68,1.83-13.33,5.13Zm128.44,148.57l-96.02,35.3c-12.98,4.77-26.74-4.83-26.74-18.66v-51.47c0-10.98,8.9-19.88,19.88-19.88h96.02c10.98,0,19.88,8.9,19.88,19.88v16.16c0,8.33-5.2,15.78-13.02,18.66Z"/>
      </g>
    </g>
  </g>
</svg>